<?xml version="1.0" encoding="UTF-8"?>
<!DOCTYPE svg PUBLIC "-//W3C//DTD SVG 1.1//EN" "http://www.w3.org/Graphics/SVG/1.1/DTD/svg11.dtd">
<svg xmlns="http://www.w3.org/2000/svg" version="1.1" width="31px" height="50px" style="shape-rendering:geometricPrecision; text-rendering:geometricPrecision; image-rendering:optimizeQuality; fill-rule:evenodd; clip-rule:evenodd" xmlns:xlink="http://www.w3.org/1999/xlink">
<g><path style="opacity:0.877" fill="#e70000" d="M 22.5,-0.5 C 24.1667,-0.5 25.8333,-0.5 27.5,-0.5C 28.1667,0.833333 29.1667,1.83333 30.5,2.5C 30.5,4.16667 30.5,5.83333 30.5,7.5C 24.521,12.8123 18.8543,18.479 13.5,24.5C 18.8543,30.521 24.521,36.1877 30.5,41.5C 30.5,43.1667 30.5,44.8333 30.5,46.5C 29.1667,47.1667 28.1667,48.1667 27.5,49.5C 25.8333,49.5 24.1667,49.5 22.5,49.5C 15.4659,41.4651 7.79927,34.1317 -0.5,27.5C -0.5,25.5 -0.5,23.5 -0.5,21.5C 7.79927,14.8683 15.4659,7.53494 22.5,-0.5 Z"/></g>
</svg>
