<?xml version="1.0" encoding="UTF-8"?>
<!DOCTYPE svg PUBLIC "-//W3C//DTD SVG 1.1//EN" "http://www.w3.org/Graphics/SVG/1.1/DTD/svg11.dtd">
<svg xmlns="http://www.w3.org/2000/svg" version="1.1" width="30px" height="50px" style="shape-rendering:geometricPrecision; text-rendering:geometricPrecision; image-rendering:optimizeQuality; fill-rule:evenodd; clip-rule:evenodd" xmlns:xlink="http://www.w3.org/1999/xlink">
<g><path style="opacity:0.863" fill="#e70000" d="M 2.5,-0.5 C 4.16667,-0.5 5.83333,-0.5 7.5,-0.5C 14.5,7.16667 21.8333,14.5 29.5,21.5C 29.5,23.5 29.5,25.5 29.5,27.5C 21.8333,34.5 14.5,41.8333 7.5,49.5C 5.83333,49.5 4.16667,49.5 2.5,49.5C 1.83333,48.1667 0.833333,47.1667 -0.5,46.5C -0.5,44.8333 -0.5,43.1667 -0.5,41.5C 5.47899,36.1877 11.1457,30.521 16.5,24.5C 11.1457,18.479 5.47899,12.8123 -0.5,7.5C -0.5,5.83333 -0.5,4.16667 -0.5,2.5C 0.833333,1.83333 1.83333,0.833333 2.5,-0.5 Z"/></g>
</svg>
